#!OML:ASF I:\Random Stuff\random\construction\7_22_03\Session 2\subj1.ASF
:FULLY-SPECIFIED
:DEGREES
1622
root 16.1058 17.4787 -2.45301 8.98527 -127.168 -3.50669
lowerback 1.85088 0.174513 5.12965
upperback -0.847615 0.238947 5.24009
thorax -1.90916 -0.00558563 2.52178
lowerneck -26.0443 -2.47453 -2.32429
upperneck 33.5626 -12.8076 18.1196
head 19.0443 -3.56906 5.73302
rclavicle 5.78463e-014 -3.18055e-014
rhumerus 10.665 49.8538 -54.3072
rradius 99.8385
rwrist -5.76833
rhand -16.7117 18.4704
rfingers 7.12502
rthumb 9.51353 -11.2949
lclavicle 5.78463e-014 -3.18055e-014
lhumerus 9.97822 24.3096 75.6667
lradius 113.607
lwrist 86.4462
lhand -20.5548 72.3403
lfingers 7.12502
lthumb 5.8042 617.759
rfemur -14.662 6.24398 20.4431
rtibia 28.5405
rfoot -15.7138 -21.9817
rtoes -7.2781
lfemur -17.2292 -17.3187 -14.4474
ltibia 26.7556
lfoot -15.8918 10.6604
ltoes -38.6585
1623
root 16.0993 17.4781 -2.47009 8.98943 -126.958 -3.48728
lowerback 1.70104 0.17766 5.14816
upperback -0.873234 0.23109 5.25666
thorax -1.85116 -0.00957641 2.52873
lowerneck -25.9335 -2.44725 -2.3257
upperneck 33.6758 -12.8463 18.1768
head 19.1001 -3.58705 5.76353
rclavicle -3.24019e-014 -9.54166e-015
rhumerus 10.9283 50.1252 -53.9966
rradius 99.8396
rwrist -4.05133
rhand -16.3957 18.0826
rfingers 7.12502
rthumb 9.8184 -11.6685
lclavicle -3.24019e-014 -9.54166e-015
lhumerus 10.0103 23.9228 75.6658
lradius 113.796
lwrist 86.0582
lhand -20.8209 73.0067
lfingers 7.12502
lthumb 5.54725 617.086
rfemur -14.6213 6.11137 20.5256
rtibia 28.5935
rfoot -15.825 -22.0711
rtoes -7.29907
lfemur -17.2145 -17.3581 -14.3956
ltibia 26.7112
lfoot -15.7888 10.6004
ltoes -38.8778
1624
root 16.0917 17.4745 -2.48625 8.95581 -126.778 -3.50876
lowerback 1.61942 0.180783 5.12324
upperback -0.867299 0.22661 5.27537
thorax -1.7992 -0.0109227 2.56194
lowerneck -25.8703 -2.41922 -2.31276
upperneck 33.8006 -12.8883 18.2198
head 19.1733 -3.60258 5.78549
rclavicle -4.21423e-014 -6.52014e-014
rhumerus 11.2457 50.5176 -53.562
rradius 99.8172
rwrist -3.03638
rhand -16.425 17.6584
rfingers 7.12502
rthumb 9.79017 -12.094
lclavicle -4.21423e-014 -6.52014e-014
lhumerus 10.124 23.6247 75.751
lradius 113.91
lwrist 85.6681
lhand -20.856 73.4073
lfingers 7.12502
lthumb 5.51335 616.684
rfemur -14.5164 5.99787 20.5819
rtibia 28.6604
rfoot -15.8962 -22.1624
rtoes -7.31107
lfemur -17.1215 -17.3919 -14.4089
ltibia 26.6788
lfoot -15.6585 10.6029
ltoes -39.1722
1625
root 16.0845 17.4686 -2.50123 8.92673 -126.587 -3.54508
lowerback 1.53021 0.190013 5.1184
upperback -0.845452 0.229577 5.27735
thorax -1.72643 -0.00814591 2.56618
lowerneck -25.8109 -2.41518 -2.28403
upperneck 33.8633 -12.9705 18.2908
head 19.2223 -3.62934 5.80211
rclavicle -3.81667e-014 1.20861e-013
rhumerus 11.4333 51.0513 -53.1014
rradius 99.7843
rwrist -3.56013
rhand -17.3967 17.8717
rfingers 7.12502
rthumb 8.85252 -11.9226
lclavicle -3.81667e-014 1.20861e-013
lhumerus 10.399 23.3946 75.9508
lradius 113.945
lwrist 85.3094
lhand -20.7756 73.5499
lfingers 7.12502
lthumb 5.59102 616.544
rfemur -14.4114 5.86646 20.6261
rtibia 28.7418
rfoot -15.9927 -22.2381
rtoes -7.13105
lfemur -17.0249 -17.2766 -14.4492
ltibia 26.6488
lfoot -15.5716 10.5076
ltoes -39.9597
1626
root 16.0791 17.4639 -2.51523 8.94714 -126.386 -3.61739
lowerback 1.44788 0.195936 5.12534
upperback -0.816215 0.229607 5.25658
thorax -1.64976 -0.00637663 2.54025
lowerneck -25.852 -2.43134 -2.35607
upperneck 33.9796 -13.0789 18.4059
head 19.3519 -3.66943 5.86255
rclavicle -5.88403e-014 -1.43125e-014
rhumerus 11.4173 51.4966 -52.8505
rradius 99.8996
rwrist -4.2907
rhand -18.3641 17.8704
rfingers 7.12502
rthumb 7.91895 -11.9613
lclavicle -5.88403e-014 -1.43125e-014
lhumerus 10.8128 23.2025 76.2115
lradius 114.007
lwrist 84.747
lhand -20.716 73.8973
lfingers 7.12502
lthumb 5.64852 616.198
rfemur -14.3351 5.71715 20.6444
rtibia 28.8315
rfoot -16.0892 -22.305
rtoes -7.02087
lfemur -16.9676 -17.179 -14.4841
ltibia 26.6235
lfoot -15.594 10.2864
ltoes -40.4849
1627
root 16.0741 17.4601 -2.52929 8.97089 -126.26 -3.73314
lowerback 1.4423 0.215365 5.1089
upperback -0.757233 0.253674 5.20919
thorax -1.58575 0.00846849 2.49898
lowerneck -26.1346 -2.44188 -2.5083
upperneck 34.3123 -13.2404 18.5387
head 19.7049 -3.72557 5.96482
rclavicle 5.9039e-014 -1.59028e-015
rhumerus 11.2108 51.7295 -52.9284
rradius 100.192
rwrist -4.46031
rhand -18.9193 17.0175
rfingers 7.12502
rthumb 7.38306 -12.8337
lclavicle 5.9039e-014 -1.59028e-015
lhumerus 11.2226 22.9554 76.3916
lradius 114.138
lwrist 84.0479
lhand -20.8433 74.2517
lfingers 7.12502
lthumb 5.52566 615.84
rfemur -14.2322 5.62381 20.6288
rtibia 28.9234
rfoot -16.1414 -22.3632
rtoes -7.08495
lfemur -16.8601 -17.2101 -14.5465
ltibia 26.6049
lfoot -15.6095 10.1936
ltoes -40.349
1628
root 16.0688 17.4567 -2.54308 8.93793 -126.186 -3.81798
lowerback 1.48646 0.260719 5.12567
upperback -0.693988 0.317438 5.1447
thorax -1.54527 0.0426348 2.42044
lowerneck -25.9697 -2.50462 -2.40601
upperneck 34.0081 -13.2742 18.5562
head 19.4728 -3.73163 5.90736
rclavicle -6.2816e-014 -3.18055e-014
rhumerus 10.7999 51.8302 -53.2868
rradius 100.502
rwrist -4.59726
rhand -19.6374 15.9181
rfingers 7.12502
rthumb 6.68982 -13.9562
lclavicle -6.2816e-014 -3.18055e-014
lhumerus 11.5857 22.5984 76.4984
lradius 114.276
lwrist 83.4527
lhand -21.0955 74.6197
lfingers 7.12502
lthumb 5.28213 615.466
rfemur -14.1028 5.51207 20.6244
rtibia 29.01
rfoot -16.2448 -22.3146
rtoes -6.7778
lfemur -16.7032 -17.2827 -14.6147
ltibia 26.5861
lfoot -15.5851 10.2567
ltoes -40.3291
1629
root 16.0638 17.4536 -2.55768 8.93091 -126.044 -3.89869
lowerback 1.53752 0.273455 5.12933
upperback -0.684175 0.340808 5.10502
thorax -1.56377 0.05516 2.37645
lowerneck -25.7223 -2.56647 -2.26264
upperneck 33.7138 -13.2718 18.4711
head 19.1986 -3.73402 5.79867
rclavicle -5.24792e-014 2.8625e-014
rhumerus 10.3481 51.8187 -53.8179
rradius 100.67
rwrist -4.90762
rhand -20.3413 15.0554
rfingers 7.12502
rthumb 6.01029 -14.8394
lclavicle -5.24792e-014 2.8625e-014
lhumerus 11.8567 22.3403 76.6957
lradius 114.376
lwrist 83.0437
lhand -21.2375 74.9278
lfingers 7.12502
lthumb 5.14499 615.155
rfemur -13.9997 5.33836 20.6321
rtibia 29.0956
rfoot -16.3822 -22.2648
rtoes -6.47066
lfemur -16.5919 -17.3238 -14.6692
ltibia 26.5588
lfoot -15.5639 10.271
ltoes -40.8098
1630
root 16.0598 17.451 -2.5733 8.968 -125.857 -3.98726
lowerback 1.56806 0.255253 5.07533
upperback -0.707935 0.320145 5.12175
thorax -1.60585 0.0448441 2.42468
lowerneck -26.1725 -2.48258 -2.45875
upperneck 34.4308 -13.2961 18.4137
head 19.7745 -3.7463 5.89104
rclavicle -5.46658e-014 -4.77083e-015
rhumerus 9.84127 51.6874 -54.4482
rradius 100.736
rwrist -5.62182
rhand -20.758 14.9498
rfingers 7.12502
rthumb 5.60798 -14.956
lclavicle -5.46658e-014 -4.77083e-015
lhumerus 12.0121 22.3137 77.099
lradius 114.474
lwrist 82.8175
lhand -21.1489 74.9037
lfingers 7.12502
lthumb 5.23058 615.181
rfemur -13.9299 5.25279 20.6418
rtibia 29.1859
rfoot -16.4995 -22.3357
rtoes -6.26596
lfemur -16.5281 -17.3884 -14.6953
ltibia 26.5224
lfoot -15.5732 10.1989
ltoes -41.1033
1631
root 16.0558 17.45 -2.58792 9.02366 -125.67 -4.04956
lowerback 1.54535 0.251495 5.01876
upperback -0.750319 0.312824 5.18368
thorax -1.63746 0.0401761 2.52108
lowerneck -25.8853 -2.50597 -2.46922
upperneck 34.1855 -13.1346 18.2964
head 19.4865 -3.70805 5.83997
rclavicle -4.57205e-014 -3.49861e-014
rhumerus 9.1225 51.4027 -55.1764
rradius 100.87
rwrist -6.2997
rhand -20.826 15.2429
rfingers 7.12502
rthumb 5.54235 -14.6646
lclavicle -4.57205e-014 -3.49861e-014
lhumerus 12.0652 22.4033 77.6465
lradius 114.605
lwrist 82.6568
lhand -21.021 74.8433
lfingers 7.12502
lthumb 5.35406 615.244
rfemur -13.9068 5.15784 20.6591
rtibia 29.2739
rfoot -16.6259 -22.3704
rtoes -5.86762
lfemur -16.5162 -17.4324 -14.6877
ltibia 26.4825
lfoot -15.5188 10.0731
ltoes -40.9634
1632
root 16.0512 17.4489 -2.60252 9.12355 -125.463 -4.15671
lowerback 1.52323 0.253234 4.95723
upperback -0.801613 0.31396 5.23702
thorax -1.67864 0.0398908 2.61117
lowerneck -25.6912 -2.54059 -2.52045
upperneck 34.0886 -13.0346 18.1724
head 19.3336 -3.69564 5.79713
rclavicle -8.24956e-014 9.54166e-015
rhumerus 8.29421 51.0033 -55.977
rradius 101.029
rwrist -6.61413
rhand -20.8736 15.5524
rfingers 7.12502
rthumb 5.49637 -14.3563
lclavicle -8.24956e-014 9.54166e-015
lhumerus 12.0763 22.5149 78.2436
lradius 114.708
lwrist 82.3406
lhand -20.944 74.773
lfingers 7.12502
lthumb 5.42841 615.316
rfemur -13.8846 5.00499 20.6517
rtibia 29.3525
rfoot -16.7293 -22.4103
rtoes -5.64127
lfemur -16.5183 -17.4196 -14.7114
ltibia 26.4458
lfoot -15.4423 9.8898
ltoes -40.8766
1633
root 16.0469 17.447 -2.61818 9.22714 -125.265 -4.28381
lowerback 1.51214 0.273182 4.90019
upperback -0.83098 0.339887 5.27051
thorax -1.70354 0.0527475 2.67729
lowerneck -25.6957 -2.5546 -2.52075
upperneck 34.1715 -12.9762 17.9996
head 19.3427 -3.68493 5.73252
rclavicle -2.00773e-014 0
rhumerus 7.47017 50.5792 -56.7646
rradius 101.188
rwrist -6.96107
rhand -21.1289 16.0415
rfingers 7.12502
rthumb 5.24991 -13.8735
lclavicle -2.00773e-014 0
lhumerus 12.146 22.6365 78.9167
lradius 114.757
lwrist 81.88
lhand -20.6559 74.6451
lfingers 7.12502
lthumb 5.70662 615.452
rfemur -13.8396 4.89601 20.6432
rtibia 29.4076
rfoot -16.7612 -22.5444
rtoes -5.82958
lfemur -16.5051 -17.4251 -14.7456
ltibia 26.4295
lfoot -15.4483 9.69619
ltoes -40.7872
1634
root 16.0426 17.4449 -2.63307 9.2578 -125.105 -4.32403
lowerback 1.46765 0.297417 4.88267
upperback -0.841098 0.365511 5.33997
thorax -1.68978 0.0644692 2.75871
lowerneck -25.6746 -2.54325 -2.5649
upperneck 34.2261 -12.8728 17.8836
head 19.3319 -3.65814 5.71378
rclavicle 7.25564e-014 1.49486e-013
rhumerus 6.76099 50.2672 -57.3913
rradius 101.415
rwrist -7.31724
rhand -21.2344 16.4296
rfingers 7.12502
rthumb 5.14805 -13.4878
lclavicle 7.25564e-014 1.49486e-013
lhumerus 12.1757 22.9001 79.6345
lradius 114.852
lwrist 81.5364
lhand -20.1954 74.5927
lfingers 7.12502
lthumb 6.15118 615.517
rfemur -13.7913 4.73877 20.6857
rtibia 29.4411
rfoot -16.7883 -22.5876
rtoes -5.96953
lfemur -16.496 -17.404 -14.7377
ltibia 26.4327
lfoot -15.5308 9.45894
ltoes -40.8976
